<svg width="16" height="18" viewBox="0 0 16 18" fill="none" xmlns="http://www.w3.org/2000/svg">
<g id="Group 29">
<g id="Group 75">
<g id="Group 73">
<path id="Ellipse 1" d="M11.9363 5.10492C11.9363 7.39807 10.0774 9.25704 7.78421 9.25704C5.49105 9.25704 3.63208 7.39807 3.63208 5.10492C3.63208 2.81176 5.49105 0.952789 7.78421 0.952789C10.0774 0.952789 11.9363 2.81176 11.9363 5.10492Z" fill="#002A38"/>
<path id="Subtract" fill-rule="evenodd" clip-rule="evenodd" d="M4.57166 8.73067C2.10567 10.2143 1.00285 13.3023 0.522941 15.4037C0.287478 16.4348 1.26367 17.2637 2.30238 17.0648C3.69526 16.798 5.64816 16.5233 7.78418 16.5233C9.9202 16.5233 11.8731 16.798 13.2659 17.0648C14.3047 17.2637 15.2808 16.4348 15.0454 15.4037C14.5655 13.3023 13.4627 10.2143 10.9967 8.73067C10.1417 9.48875 9.01669 9.94906 7.78417 9.94906C6.55165 9.94906 5.42663 9.48875 4.57166 8.73067Z" fill="#002A38"/>
</g>
</g>
</g>
</svg>
