<svg width="24" height="24" viewBox="0 0 24 24" fill="none" xmlns="http://www.w3.org/2000/svg">
<path d="M8.35501 0.643626C5.46845 1.65782 2.97196 3.84225 1.56769 6.57278C1.0996 7.50897 0.709519 8.52316 0.553488 9.61538C0.00738171 12.1899 0.397458 14.9984 1.56769 17.3389C2.34784 18.8992 3.44005 20.2254 4.84433 21.3177C6.09257 22.3319 7.57486 23.112 9.21318 23.5021C11.2416 24.0482 13.348 24.0482 15.2984 23.5801C17.0927 23.19 18.8091 22.3319 20.2133 21.0056C21.6956 19.6793 22.7098 17.963 23.2559 16.0126C23.88 13.9842 23.9581 11.7998 23.568 9.69339C19.8232 9.69339 16.0785 9.69339 12.3338 9.69339C12.3338 11.2537 12.3338 12.814 12.3338 14.3743C14.5182 14.3743 16.7026 14.3743 18.8091 14.3743C18.575 15.8566 17.6388 17.2609 16.3906 18.041C15.6104 18.5871 14.6742 18.8992 13.7381 19.0552C12.8019 19.2113 11.7877 19.2113 10.8515 19.0552C9.91532 18.8992 8.97913 18.4311 8.19898 17.885C6.95074 17.0268 5.93654 15.7006 5.46845 14.2183C4.92234 12.736 4.92234 11.0977 5.46845 9.53736C5.85852 8.52316 6.40463 7.50897 7.18478 6.72881C8.12097 5.71461 9.36921 5.01248 10.7735 4.77843C11.9437 4.54439 13.1139 4.54439 14.2842 4.93446C15.2204 5.24652 16.1565 5.79263 16.8587 6.41675C17.5608 5.71462 18.341 4.93446 19.0431 4.23233C19.4332 3.84225 19.8232 3.45217 20.2133 3.0621C19.1211 2.0479 17.7949 1.18973 16.3906 0.643626C13.8161 -0.214542 10.9295 -0.214542 8.35501 0.643626Z" fill="white"/>
<path d="M8.3552 0.643591C10.9297 -0.214576 13.8163 -0.214576 16.3908 0.721607C17.795 1.26771 19.1213 2.04787 20.2135 3.14008C19.8234 3.53015 19.4334 3.92023 19.0433 4.31031C18.3411 5.01244 17.561 5.7926 16.8589 6.49473C16.1567 5.7926 15.2205 5.24649 14.2844 5.01244C13.1921 4.70038 11.9439 4.62237 10.7737 4.85641C9.44741 5.16847 8.19917 5.87061 7.18497 6.80679C6.40482 7.58695 5.78069 8.60114 5.46863 9.61534C4.14237 8.60114 2.89413 7.58695 1.56787 6.57275C2.97215 3.84222 5.46863 1.65779 8.3552 0.643591Z" fill="#EA4335"/>
<path d="M0.553488 9.61535C0.787534 8.60115 1.0996 7.58695 1.56769 6.57275C2.89395 7.58695 4.14219 8.60115 5.46845 9.61535C4.92234 11.0976 4.92234 12.736 5.46845 14.2963C4.14219 15.3105 2.89395 16.3247 1.56769 17.3389C0.397458 14.9204 0.00738168 12.1899 0.553488 9.61535Z" fill="#FBBC05"/>
<path d="M12.2559 9.69342C16.0006 9.69342 19.7453 9.69342 23.4901 9.69342C23.8801 11.7998 23.8021 13.9843 23.178 16.0127C22.6319 17.885 21.6177 19.6014 20.1354 21.0056C18.8872 19.9914 17.6389 19.0552 16.3127 18.041C17.5609 17.1829 18.4191 15.8566 18.7311 14.3743C16.5467 14.3743 14.3623 14.3743 12.2559 14.3743C12.2559 12.814 12.2559 11.2537 12.2559 9.69342Z" fill="#4285F4"/>
<path d="M1.56787 17.3389C2.89413 16.3247 4.14237 15.3105 5.46863 14.2963C5.93672 15.7786 6.95092 17.1048 8.19917 17.963C8.97932 18.5091 9.9155 18.8992 10.8517 19.1332C11.7879 19.2892 12.7241 19.2892 13.7382 19.1332C14.6744 18.9772 15.6106 18.5871 16.3908 18.119C17.639 19.1332 18.8873 20.0694 20.2135 21.0836C18.8092 22.3318 17.1709 23.19 15.2986 23.6581C13.2702 24.1262 11.1637 24.1262 9.21336 23.5801C7.65306 23.19 6.17077 22.4098 4.84451 21.3956C3.51825 20.2254 2.34802 18.8211 1.56787 17.3389Z" fill="#34A853"/>
</svg>
